<?xml version="1.0" encoding="utf-8"?>
<svg xmlns="http://www.w3.org/2000/svg" viewBox="0 0 1184 864">
  <path fill="#F7F6ED" d="M593.4 231.7a31 31 0 0 1 14.7 15.4 33 33 0 0 1-1.4 23.5 87 87 0 0 1-4.5 7.2c-4.5 4.5-9 7-15.2 8.2v17l6.3-.1c8.4-.1 16.5.9 24.8 2l7 1a224 224 0 0 1 41.3 9.4l2.9.8q10.9 3.4 21.1 8.5c3.7 1.9 3.7 1.9 7.6 2.1 3.3-1.2 5.6-3.7 8.2-6 21.2-18.7 51.8-41.8 81.2-41 7.7.7 13.8 3.4 19 9.2 8.7 12 9.2 26.3 7 40.5-6 31.4-20 63.5-38.4 89.6l1.8.4c7 2 13 4.8 19.2 8.6l2 1.2c8 5.8 12.1 16.8 13.6 26.2.8 7.5.7 15 .7 22.6v8.8q.3 14.2-1.6 28.2l-.4 2.4a40 40 0 0 1-13.9 26 74 74 0 0 1-23.4 10.3c-3.8 1-5.5 1.6-7.9 4.9q-1.6 3-2.8 6.3c-2 4.7-5 8.3-8.3 12.1l-1.8 2c-29.5 31.5-78.4 39.2-119.2 43l-3.6.4c-43 4-88.8 4-131.4-4.4l-2.8-.5c-33.1-6.3-71.5-17.4-92.4-46.2-6-9-6-9-7.6-13.5-2-3-5.3-3.3-8.6-4.2-11.3-3.2-23-8-29.3-18.4a79 79 0 0 1-8.5-38.1v-9.8l-.2-6.6c-.2-17.9-.3-34.8 12.3-48.8 6-5.9 16.4-12.9 25.1-12.9l-1-1.5c-19.4-31.7-45-75.9-37.3-114.8a36 36 0 0 1 16.5-20.8 22 22 0 0 1 11-2l3.3-.1c27.7 1.8 55.3 23 75.4 40.7l3 2.6 2.6 2.3c2.3 1.8 2.3 1.8 4.8 1.6q4.4-1.6 8.6-3.5a228 228 0 0 1 64.9-18.1c12-2 24-2.5 36.2-2.4v-17l-5-1q-11.3-5.4-16.1-16.9A34 34 0 0 1 556 242c8.5-13 23.6-16 37.4-10.3" id="face&quot; fill=&quot;#F7F6ED"/>
  <path fill="#232222" d="M593.4 231.7a31 31 0 0 1 14.7 15.4 33 33 0 0 1-1.4 23.5 87 87 0 0 1-4.5 7.2c-4.5 4.5-9 7-15.2 8.2v17l6.3-.1c8.4-.1 16.5.9 24.8 2l7 1a224 224 0 0 1 41.3 9.4l2.9.8q10.9 3.4 21.1 8.5c3.7 1.9 3.7 1.9 7.6 2.1 3.3-1.2 5.6-3.7 8.2-6 21.2-18.7 51.8-41.8 81.2-41 7.7.7 13.8 3.4 19 9.2 8.7 12 9.2 26.3 7 40.5-6 31.4-20 63.5-38.4 89.6l1.8.4c7 2 13 4.8 19.2 8.6l2 1.2c8 5.8 12.1 16.8 13.6 26.2.8 7.5.7 15 .7 22.6v8.8q.3 14.2-1.6 28.2l-.4 2.4a40 40 0 0 1-13.9 26 74 74 0 0 1-23.4 10.3c-3.8 1-5.5 1.6-7.9 4.9q-1.6 3-2.8 6.3c-2 4.7-5 8.3-8.3 12.1l-1.8 2c-29.5 31.5-78.4 39.2-119.2 43l-3.6.4c-43 4-88.8 4-131.4-4.4l-2.8-.5c-33.1-6.3-71.5-17.4-92.4-46.2-6-9-6-9-7.6-13.5-2-3-5.3-3.3-8.6-4.2-11.3-3.2-23-8-29.3-18.4a79 79 0 0 1-8.5-38.1v-9.8l-.2-6.6c-.2-17.9-.3-34.8 12.3-48.8 6-5.9 16.4-12.9 25.1-12.9l-1-1.5c-19.4-31.7-45-75.9-37.3-114.8a36 36 0 0 1 16.5-20.8 22 22 0 0 1 11-2l3.3-.1c27.7 1.8 55.3 23 75.4 40.7l3 2.6 2.6 2.3c2.3 1.8 2.3 1.8 4.8 1.6q4.4-1.6 8.6-3.5a228 228 0 0 1 64.9-18.1c12-2 24-2.5 36.2-2.4v-17l-5-1q-11.3-5.4-16.1-16.9A34 34 0 0 1 556 242c8.5-13 23.6-16 37.4-10.3M476.7 334.8l-2 1a139 139 0 0 0-35.2 23.3C414 381.5 402.3 408.8 398 442q0 1-.3 2-1 9-.9 17.9v16.4c-.9 50.4-.9 50.4 22.2 93.2C450.7 603 501.7 608 544 611l2.5.2a497 497 0 0 0 117.4-5.8c27.8-3.8 58-14.3 78.1-34.4l2.4-2.4C756.5 556 760 541 762 524l.3-2c2.5-18.9 2-38 1.7-57v-3.2c-.8-39.8-12.2-73-40.5-101.3-11.9-11.2-33.8-28.5-50.5-28.5l-.6 1.8c-12.4 35.7-12.4 35.7-22.2 40.5-7.9 3.5-14.5 2.6-22.8 1.3-14.1-2-28.3-1.8-42.5-1.8h-11.2a397 397 0 0 0-51.6 2.9l-2.6.3c-4.4 0-7.7-2-11.5-4l-3-1-2-4-4.8-9.9-1.4-2.8q-4.5-9.7-7.7-19.9c-.9-2.5-.9-2.5-2.8-3.4-3.5 0-6.4 1.4-9.6 2.8"/>
  <path fill="#F8D97B" d="M488 333q1.9 4.3 3.2 8.5c2.9 8.6 6.6 16.3 11 24.2a26 26 0 0 1 2.8 6.3c1.6 1.1 1.6 1.1 4 2l3.6 1.7a18 18 0 0 0 9.5 1l3-.4q1.5 0 2.9-.3a467 467 0 0 1 59.9-2.3q23.6 0 47 2.7l3 .3 2.6.3c5.6 0 10-2.7 14.2-6.1 9-11.2 14-25.3 18.3-38.9 5.4.5 9.6 2 14.4 4.4l2.1 1.1A165 165 0 0 1 726 363l2.3 2.1C756 391.3 763 428.5 764 465c.5 21.9.2 43.3-3 65l-.5 3.4q-4.1 28.3-27.1 45.8c-19.8 14.3-43.7 21.4-67.4 25.8l-2.1.4a441 441 0 0 1-80.5 6.8h-2.2c-54.7-.1-122.4-2.4-164-42.6-22.6-23.2-20.3-60.4-20.5-90.5v-6.6c-.4-40.6 7.7-78.2 36.6-108.2 10-9.6 40.4-37.2 54.7-31.3m42.6 60.7-8 .7c-29.4 2.2-64.8 5.2-87.2 26.8-18.1 21.2-21 53-19.4 79.8 1.8 21 7.2 40.6 23 55.5 20.4 16.9 49.3 19.6 74.7 22.8l2 .2a363 363 0 0 0 46.3 2.7h22.3a418 418 0 0 0 82.7-6q1 0 2-.3a314 314 0 0 0 27.4-6.4l2.9-.8q21.3-6.5 32.7-25.7a126 126 0 0 0 7-93.1c-6-18.4-14.4-31-31.5-40.3-26.4-13-58.7-14.3-87.6-16.3l-7.4-.6c-11.6-.9-23.2-.9-34.9-.9h-3.2c-14.7 0-29.2.3-43.8 2"/>
  <path fill="#F8D97C" d="M576.3 315.7h10.2c15 .1 29.6.4 44.4 3.4l3.2.7A369 369 0 0 1 668 329c-10 34.3-10 34.3-22.9 42.1-2.6 1.1-4.1 1-7 .6l-5-.5-4.4-.4q-23.4-2.4-47-2h-11.8c-12.5 0-24.7.1-37 1.7-14.6 1.8-14.6 1.8-21.4-.9-8-8.4-11.6-19.8-15.7-30.5l-2-5c-.8-2.1-.8-2.1-.8-5.1a237 237 0 0 1 83.3-13.3" id="forehead&quot; fill=&quot;#F8D97C"/>
  <path fill="#030303" d="M523.6 456.1c7 5.5 12.6 13.2 14.4 21.9a42 42 0 0 1-7.2 31.8A42 42 0 0 1 506 524a38 38 0 0 1-29.2-8.3 40 40 0 0 1-14-26.3A38 38 0 0 1 472 462a39 39 0 0 1 51.6-6m157.1.3A39 39 0 0 1 696 482a38.7 38.7 0 0 1-34.4 42.2A40 40 0 0 1 633 515a37 37 0 0 1-12.6-28.8c0-8.2 1.9-14.3 6.6-21.2l1.4-2c3.8-5.2 9-8.1 14.6-11l2-1c12-5.4 25.2-1.4 35.7 5.3" id="eyes&quot; fill=&quot;#030303"/>
  <path fill="#E8B753" d="M405 550c3.2 1.4 5 2.9 7.1 5.6 27.4 32.1 80.5 36.2 119.8 39.7 16.3 1.2 32.6 1.2 49 1.1h2.4a486 486 0 0 0 82.2-6 239 239 0 0 0 42-9.6l2.7-1c15.5-5.4 30.4-12.7 40.8-25.8h3c-6.3 17.4-24.1 28.8-40 36.6a206 206 0 0 1-48 14.4l-2.1.4a441 441 0 0 1-80.5 6.8h-2.2c-54.7-.1-122.4-2.4-164-42.6A40 40 0 0 1 405 550" id="face-bottom-shadow&quot; fill=&quot;#E8B753"/>
  <path fill="#F7D778" d="M408.4 304.3c2.6.7 4.6 1.7 6.9 3.1l2.4 1.5 2.5 1.7 2.6 1.6q9 5.9 17.2 12.8l6.1 5 4.9 4c-1.3 4-3.9 5.2-7.3 7.4A131 131 0 0 0 394 407h-2c-27.9-50-27.9-50-26-62q2.4-3.7 5.6-6.9l1.6-1.8 3.3-3.7 5.2-6q8.1-9.2 17.5-17l4.5-4.1c2.3-1.5 2.3-1.5 4.7-1.2" id="left-ear-body&quot; fill=&quot;#F7D778"/>
  <path fill="#F6D87A" d="M755 305a162 162 0 0 1 33.4 31.7l2.5 3 2.4 2.6c2 3.3 2 4.8 1.7 8.7-.8 2.8-.8 2.8-2 5.7l-1.3 3.3-1.5 3.4-1.4 3.6q-5 12.1-11.2 23.9l-1.5 2.9A39 39 0 0 1 767 406l-1.5-3.5A157 157 0 0 0 735 356l-1.6-1.8a83 83 0 0 0-14.4-11.6 52 52 0 0 1-9-7.6c9.4-10.6 21.5-18.5 33.3-26.3l2.1-1.5 2-1.3 1.8-1.2c2.4-1 3.5-.6 5.8.3" id="antenna&quot; d=&quot;M755 305a162 162 0 0 1 33.4 31.7l2.5 3 2.4 2.6c2 3.3 2 4.8 1.7 8.7-.8 2.8-.8 2.8-2 5.7l-1.3 3.3-1.5 3.4-1.4 3.6q-5 12.1-11.2 23.9l-1.5 2.9A39 39 0 0 1 767 406l-1.5-3.5A157 157 0 0 0 735 356l-1.6-1.8a83 83 0 0 0-14.4-11.6 52 52 0 0 1-9-7.6c9.4-10.6 21.5-18.5 33.3-26.3l2.1-1.5 2-1.3 1.8-1.2c2.4-1 3.5-.6 5.8.3"/>
  <path fill="#EBE4CF" d="M562.9 391.8h15.3c116 0 116 0 144.4 27.5A80 80 0 0 1 742 467c-2.5-2.5-2.7-4.3-3.6-7.8a56 56 0 0 0-27.2-33.6c-14.6-7.3-30.4-11-46.4-13.7q-1.2 0-2.3-.3C600.9 401.3 501 392 445 427a66 66 0 0 0-10 9l-2 2.1a71 71 0 0 0-14 30.9h-1c-.7-17 6.5-34.7 17.4-47.6 4.2-4.2 8.4-7.5 13.6-10.4l2.7-1.5a121 121 0 0 1 33.9-10c17.5-3.8 35.3-4.9 53.1-6l10.2-1q7-.8 14-.7" id="outline&quot; d=&quot;M562.9 391.8h15.3c116 0 116 0 144.4 27.5A80 80 0 0 1 742 467c-2.5-2.5-2.7-4.3-3.6-7.8a56 56 0 0 0-27.2-33.6c-14.6-7.3-30.4-11-46.4-13.7q-1.2 0-2.3-.3C600.9 401.3 501 392 445 427a66 66 0 0 0-10 9l-2 2.1a71 71 0 0 0-14 30.9h-1c-.7-17 6.5-34.7 17.4-47.6 4.2-4.2 8.4-7.5 13.6-10.4l2.7-1.5a121 121 0 0 1 33.9-10c17.5-3.8 35.3-4.9 53.1-6l10.2-1q7-.8 14-.7"/>
  <path fill="#F6D87D" d="M773 431a37 37 0 0 1 24 17c4.7 10.2 3.2 23.5 3.3 34.5v2.4c0 32.6 0 32.6-7.9 45.7-6 6-13.4 8.9-21.4 11.4l.4-2.5a425 425 0 0 0 4-60.7v-3.3a247 247 0 0 0-2-35q-.6-4.8-.4-9.5" id="right-phone&quot; fill=&quot;#F6D87D"/>
  <path fill="#F5D67A" d="m388 431-.4 3.2a313 313 0 0 0-1.9 40.3v11.1c-.5 23.4-.5 23.4 2.8 46.4.8 3 .6 6 .5 9a36 36 0 0 1-21.3-11.6c-8.6-12.8-7-31-7-45.7v-2.5c-.1-31.1-.1-31.1 8-40 5-4.9 12-10.2 19.3-10.2" id="left-phone&quot; fill=&quot;#F5D67A"/>
  <path fill="#FAFAF8" d="M576.3 315.7h10.2c15 .1 29.6.4 44.4 3.4l3.2.7q17.2 3.8 33.9 9.2l-3 10q-7.4-1-14.6-2.8c-49.7-12-98-10.1-147.4 1.7-4.8 1.1-4.8 1.1-7 1.1-3-6.6-3-6.6-3-10a237 237 0 0 1 83.3-13.3" id="forehead-shadow&quot; fill=&quot;#FAFAF8"/>
  <path fill="#2A3155" d="M793.4 293.7c5.8 5.1 8.1 9.7 9 17.6 0 12.7-2 25.6-6.4 37.7l-.7-1.6a49 49 0 0 0-6.2-8.3l-1.4-1.8-4.7-5.3-1.5-1.7A146 146 0 0 0 760 310l-2.5-1.9-5.5-4.1c3.7-3.2 7.8-4.8 12.3-6.6l2.2-.9c8.7-3.5 18-7.3 26.9-2.8" id="right-ear&quot; fill=&quot;#2A3155"/>
  <path fill="#2A3257" d="M385.6 293.4c8 2.3 15.8 6.1 23.4 9.6l-2.3 1.8q-5.4 4.4-10.7 9.2l-2.3 2c-10.5 9.2-22.6 20.4-28.7 33-4.3-14.8-9-32.5-3.7-47.6 5.6-9.8 13.7-9.7 24.3-8" id="left-ear&quot; fill=&quot;#2A3257"/>
  <path fill="#D2D3D3" d="M587.5 242.1c4.6 3 8 5.5 9.5 10.9.8 5.6.2 10.3-2.7 15.3-2.3 3-4.7 4.7-8.3 5.7-5.6.7-10.3.7-15.5-1.5a22 22 0 0 1-7-15c.2-5 2.1-8.7 5.5-12.5 5.3-4.7 12-5.9 18.5-2.9" id="anteena&quot; fill=&quot;#D2D3D3"/>
  <path fill="#E6B655" d="M799 504c-.5 10.2-1.2 21.4-9 29-6 4.5-11.7 6.5-19 9l4-36h1v5l7.1-1.8 2-.5c4.6-1.2 9.4-4.7 13.9-4.7" id="right-phone-buttom-shadow&quot; fill=&quot;#E6B655"/>
  <path fill="#F7F6F2" d="M673 332c5.4.5 9.6 2 14.4 4.4l2.1 1.1A165 165 0 0 1 726 363l2.3 2.1c5.8 5.5 14.5 13.8 15.7 21.9l-1.9-2c-20.5-20.3-44.4-32.5-71.1-43 .5-3.5.9-6.7 2-10" id="forehead-right-shadow&quot; fill=&quot;#F7F6F2"/>
  <path fill="#E9B855" d="m362 503 3 1.8c6.3 3.1 13.2 4.5 20 6.2l1-4 .2 2 .7 9.3.3 3.2.3 3 .2 3c.2 2.4.2 2.4.8 4.6.8 3 .6 5.9.5 8.9a37 37 0 0 1-20-10 43 43 0 0 1-7-28" id="left-phone-bottom-shadow&quot; fill=&quot;#E9B855"/>
  <path fill="#F5F4F0" d="M488 333c1.8 3.3 2 5.2 2 9l-1.9.8c-24.7 9.9-46.4 20.6-65.8 39-2.3 2.2-2.3 2.2-4.3 3.2 8.1-23.6 38.7-40.2 59.7-50.4 6.7-3.2 6.7-3.2 10.3-1.6" id="forehead-left-shadow&quot; fill=&quot;#F5F4F0"/>
  <path fill="#292828" d="M559 530c4.1 0 5.7.7 8.8 3.5l2.2 2.5c4.5 2.2 10.2 1.5 15 1 4-1.6 7-4 10-7 4.6.6 4.6.6 6 2 .5 2.7.5 2.7 0 6a29 29 0 0 1-18.7 10.4c-9 .4-16.2-3-23.3-8.4-2.1-3.2-2.4-4.3-2-8z" id="mouth&quot; fill=&quot;#292828"/>
  <path fill="#F8F8F8" d="M648 464c2.9 2 4.6 3.4 5.5 7 .2 3.8-.3 5.6-2.4 9-2.9 2.8-3.8 3-8 3.4-3.6 0-4-.4-7.1-2.9-2.7-4-2.7-6.8-2-11.5 4.5-5.5 7-6.6 14-5" id="right-eye-top-light&quot; fill=&quot;#F8F8F8"/>
  <path fill="#F6F6F6" d="M488.8 463.5c2.2.5 2.2.5 5.3 3 2.2 4 2.6 6 1.9 10.5-1.8 2.8-3 4.5-6 6-7 .7-7 .7-11-2a13 13 0 0 1-2.5-9.8c.5-2.2.5-2.2 2.4-5.3a14 14 0 0 1 10-2.4" id="left-eye-top-light&quot; fill=&quot;#F6F6F6"/>
  <path fill="#F5F4F0" d="M773 431a39 39 0 0 1 23 15c1.6 3.2 1.4 5.5 1 9q-7.3-2.4-14.2-5.8-4.3-1.7-8.8-3.2z" id="right-phone-shadow&quot; fill=&quot;#F5F4F0"/>
  <path fill="#F7F7F5" d="m388 431-2 15-6.5 2.3q-8 2.7-15.5 6.7c-.5-5.8.3-8.6 4-13 5-5.3 12.5-11 20-11" id="left-phone-shadow&quot; fill=&quot;#F7F7F5"/>
  <path fill="#A9A9AA" d="M596 253h1c.5 6.5 0 11.7-4 17-5.1 4.3-9.6 4.6-16.2 4.4-4-.5-6-1.6-8.8-4.4a30 30 0 0 1-4-8l1-3 1.7 1.9c4.6 4.3 9.4 4.5 15.5 4.4q7.5-.9 12.8-6.3z" id="antenna-shadow&quot; fill=&quot;#A9A9AA"/>
  <path fill="#F2F2F1" d="M676 498c3 2 3.9 3.3 4.6 7-.8 4-2.3 5.5-5.6 8-2.6.6-2.6.6-5 0-2.3-1.6-2.3-1.6-4-4-.6-4-.6-6 1.6-9.4 3.1-2 4.8-2.2 8.4-1.6" id="left-eye-bottom-light&quot; fill=&quot;#F2F2F1"/>
  <path fill="#F7F8F7" d="M518 498a9 9 0 0 1 4 4c.6 3.6.5 5.3-1.6 8.4-3.4 2.2-5.4 2.2-9.4 1.6-2.5-2.1-2.5-2.1-4-5 0-3.2.5-5.1 2.1-7.9 3-1.8 5.4-1.5 8.9-1.1" id="left-eye-bottom-light&quot; fill=&quot;#F7F8F7"/>
  <path fill="#FAFBFB" d="M579 244.8c3 .2 3 .2 4 1.2.3 3 .3 3 0 6-3.2 2.2-4.3 2.4-8 2l-2-2c.5-4.5 1.1-6.9 6-7.2" id="antenna-light&quot; fill=&quot;#FAFBFB"/>
  <path fill="#2F302F" d="M349 299a11 11 0 0 1 2 4c-.9 3.8-.9 3.8-2 7h-1c-.1-7.6-.1-7.6 1-11"/>
</svg>